<?xml version="1.0" encoding="UTF-8"?>
<svg width="770px" height="124px" viewBox="0 0 770 124" version="1.1" xmlns="http://www.w3.org/2000/svg" xmlns:xlink="http://www.w3.org/1999/xlink">
    <!-- Generator: Sketch 52.2 (67145) - http://www.bohemiancoding.com/sketch -->
    <title>outlines-wtc</title>
    <desc>Created with Sketch.</desc>
    <g id="outlines-wtc" stroke="none" stroke-width="1" fill="none" fill-rule="evenodd">
        <g id="Group-4" fill="#FF6D00">
            <path d="M0,30.044 C0.385,29.529 0.358,28.875 0.584,28.307 C1.952,24.845 4.365,22.66 8.114,22.089 C9.046,22.134 9.98,22.129 10.912,22.092 C14.34,22.559 16.693,24.484 18.219,27.503 C20.824,32.656 23.41,37.818 26.004,42.977 C33.935,58.74 41.866,74.506 49.796,90.269 C50.165,90.999 50.529,91.735 51.004,92.688 C54.915,84.911 58.733,77.315 62.642,69.541 C63.826,72.053 64.917,74.365 66.008,76.68 C68.193,81.3 70.365,85.925 72.572,90.537 C72.85,91.119 72.893,91.57 72.585,92.178 C68.246,100.741 63.943,109.319 59.625,117.893 C57.921,121.275 55.146,123.205 51.387,123.33 C47.656,123.455 44.582,121.912 42.781,118.551 C40.365,114.045 38.135,109.442 35.836,104.872 C28.003,89.316 20.173,73.76 12.346,58.201 C8.626,50.801 4.907,43.404 1.211,35.994 C0.735,35.038 0.401,34.01 0,33.017 L0,32.423 C0.167,31.762 0.167,31.1 0,30.439 L0,30.044" id="Fill-1"></path>
            <path d="M78.499,32.821 C78.661,31.926 79.206,31.194 79.553,30.379 C80.393,28.419 80.557,26.43 79.877,24.407 C79.222,22.464 77.817,21.372 75.797,21.144 C73.93,20.934 72.464,21.68 71.333,23.167 C69.947,24.994 69.939,27.007 70.47,29.107 C71.055,31.414 71.891,33.631 72.945,35.76 C82.156,54.32 91.371,72.876 100.587,91.432 C100.762,91.783 100.954,92.126 101.139,92.473 C101.519,92.354 101.556,92.025 101.684,91.777 C112.458,70.348 123.227,48.916 134.007,27.49 C136.792,21.951 143.233,20.202 148.143,23.627 C151.992,26.311 153.275,31.435 151.114,35.774 C147.792,42.451 144.423,49.102 141.072,55.764 C131.628,74.541 122.184,93.318 112.739,112.094 C111.733,114.096 110.753,116.117 109.713,118.105 C107.934,121.509 105.05,123.355 101.259,123.341 C97.358,123.331 94.396,121.475 92.606,117.914 C83.879,100.55 75.149,83.188 66.419,65.827 C61.467,55.982 56.505,46.144 51.571,36.291 C50.533,34.215 50.464,31.905 50.212,29.654 C50.111,28.74 50.148,27.809 50.122,26.887 C50.342,26.353 50.313,25.82 50.138,25.281 C50.276,21.787 51.42,18.571 52.915,15.468 C55.307,10.503 58.7,6.403 63.575,3.689 C67.937,1.258 72.645,0.45 77.61,0.827 C82.272,1.183 86.518,2.588 90.187,5.546 C94.733,9.21 97.356,14.071 98.944,19.596 C100.364,24.532 100.168,29.407 98.713,34.3 C96.655,41.211 94.042,47.892 90.575,54.224 C90.219,54.872 89.927,55.913 89.247,55.923 C88.631,55.931 88.395,54.861 88.052,54.24 C85.023,48.715 82.246,43.059 79.455,37.409 C78.961,36.406 78.561,35.351 78.483,34.21 C78.592,33.748 78.558,33.286 78.499,32.821" id="Fill-3"></path>
        </g>
        <path d="M252.95,34.91 C253.830004,37.9166817 254.801661,41.3083145 255.865,45.085 C256.928339,48.8616856 258.064994,52.7666465 259.275,56.8 C260.485006,60.8333535 261.713327,64.8666465 262.96,68.9 C264.206673,72.9333535 265.416661,76.6733161 266.59,80.12 C267.543338,76.3799813 268.514995,72.310022 269.505,67.91 C270.495005,63.509978 271.429996,58.9633568 272.31,54.27 C273.190004,49.5766432 274.051662,44.9016899 274.895,40.245 C275.738338,35.5883101 276.526663,31.0966883 277.26,26.77 L295.08,26.77 C292.513321,39.5300638 289.561683,52.4732677 286.225,65.6 C282.888317,78.7267323 279.276686,91.1932743 275.39,103 L259.66,103 C257.093321,95.9599648 254.600012,88.5717054 252.18,80.835 C249.759988,73.0982946 247.376678,65.3433722 245.03,57.57 C242.683322,65.3433722 240.336678,73.0982946 237.99,80.835 C235.643322,88.5717054 233.186679,95.9599648 230.62,103 L214.89,103 C211.003314,91.1932743 207.391683,78.7267323 204.055,65.6 C200.718317,52.4732677 197.76668,39.5300638 195.2,26.77 L213.79,26.77 C214.523337,31.0966883 215.329996,35.5883101 216.21,40.245 C217.090004,44.9016899 218.006662,49.5766432 218.96,54.27 C219.913338,58.9633568 220.884995,63.509978 221.875,67.91 C222.865005,72.310022 223.873328,76.3799813 224.9,80.12 C226.220007,76.5266487 227.503327,72.7133535 228.75,68.68 C229.996673,64.6466465 231.206661,60.6133535 232.38,56.58 C233.553339,52.5466465 234.634995,48.6600187 235.625,44.92 C236.615005,41.1799813 237.513329,37.843348 238.32,34.91 L252.95,34.91 Z M324.01,91.56 C325.623341,91.56 327.163326,91.5233337 328.63,91.45 C330.096674,91.3766663 331.269996,91.2666674 332.15,91.12 L332.15,78.69 C331.489997,78.5433326 330.500007,78.3966674 329.18,78.25 C327.859993,78.1033326 326.650006,78.03 325.55,78.03 C324.009992,78.03 322.561673,78.1216658 321.205,78.305 C319.848327,78.4883342 318.656672,78.8366641 317.63,79.35 C316.603328,79.8633359 315.79667,80.5599956 315.21,81.44 C314.62333,82.3200044 314.33,83.4199934 314.33,84.74 C314.33,87.3066795 315.191658,89.0849951 316.915,90.075 C318.638342,91.065005 321.003318,91.56 324.01,91.56 Z M322.69,43.6 C327.530024,43.6 331.563317,44.1499945 334.79,45.25 C338.016683,46.3500055 340.601657,47.9266564 342.545,49.98 C344.488343,52.0333436 345.863329,54.526652 346.67,57.46 C347.476671,60.393348 347.88,63.6566487 347.88,67.25 L347.88,101.35 C345.533322,101.863336 342.270021,102.46833 338.09,103.165 C333.909979,103.86167 328.85003,104.21 322.91,104.21 C319.169981,104.21 315.778349,103.880003 312.735,103.22 C309.691651,102.559997 307.070011,101.478341 304.87,99.975 C302.669989,98.4716591 300.983339,96.5100121 299.81,94.09 C298.636661,91.6699879 298.05,88.7000176 298.05,85.18 C298.05,81.8066498 298.728327,78.9466784 300.085,76.6 C301.441673,74.2533216 303.256655,72.3833403 305.53,70.99 C307.803345,69.5966597 310.406652,68.5883364 313.34,67.965 C316.273348,67.3416635 319.316651,67.03 322.47,67.03 C324.596677,67.03 326.484992,67.1216658 328.135,67.305 C329.785008,67.4883342 331.123328,67.7266652 332.15,68.02 L332.15,66.48 C332.15,63.6933194 331.306675,61.4566751 329.62,59.77 C327.933325,58.0833249 325.000021,57.24 320.82,57.24 C318.033319,57.24 315.283347,57.4416647 312.57,57.845 C309.856653,58.2483354 307.51001,58.816663 305.53,59.55 L303.44,46.35 C304.393338,46.0566652 305.584993,45.7450016 307.015,45.415 C308.445007,45.0849984 310.003325,44.791668 311.69,44.535 C313.376675,44.2783321 315.154991,44.0583343 317.025,43.875 C318.895009,43.6916657 320.783324,43.6 322.69,43.6 Z M412.67,45.14 C409.369983,56.2867224 405.923351,66.7366179 402.33,76.49 C398.736649,86.2433821 394.813355,95.7032875 390.56,104.87 C389.019992,108.170017 387.480008,110.974988 385.94,113.285 C384.399992,115.595012 382.713342,117.501659 380.88,119.005 C379.046658,120.508341 376.975012,121.60833 374.665,122.305 C372.354988,123.00167 369.660015,123.35 366.58,123.35 C364.01332,123.35 361.648344,123.111669 359.485,122.635 C357.321656,122.158331 355.54334,121.62667 354.15,121.04 L357.01,107.95 C358.696675,108.53667 360.199993,108.939999 361.52,109.16 C362.840007,109.380001 364.233326,109.49 365.7,109.49 C368.633348,109.49 370.888325,108.701675 372.465,107.125 C374.041675,105.548325 375.379994,103.366681 376.48,100.58 C372.739981,93.24663 369.000019,85.0150457 365.26,75.885 C361.519981,66.7549544 358.000017,56.5067235 354.7,45.14 L372.08,45.14 C372.813337,48.0000143 373.674995,51.0983167 374.665,54.435 C375.655005,57.7716834 376.699995,61.1449829 377.8,64.555 C378.900006,67.9650171 380.018328,71.2833172 381.155,74.51 C382.291672,77.7366828 383.373328,80.6699868 384.4,83.31 C385.353338,80.6699868 386.343328,77.7366828 387.37,74.51 C388.396672,71.2833172 389.404995,67.9650171 390.395,64.555 C391.385005,61.1449829 392.338329,57.7716834 393.255,54.435 C394.171671,51.0983167 394.996663,48.0000143 395.73,45.14 L412.67,45.14 Z M438.08,91.23 C441.086682,91.23 443.213327,90.9366696 444.46,90.35 C445.706673,89.7633304 446.33,88.6266751 446.33,86.94 C446.33,85.6199934 445.523341,84.465005 443.91,83.475 C442.296659,82.484995 439.840016,81.3666729 436.54,80.12 C433.97332,79.1666619 431.64501,78.1766718 429.555,77.15 C427.46499,76.1233282 425.686674,74.8950071 424.22,73.465 C422.753326,72.0349929 421.616671,70.3300099 420.81,68.35 C420.003329,66.3699901 419.6,63.9866806 419.6,61.2 C419.6,55.7733062 421.616647,51.4833491 425.65,48.33 C429.683354,45.1766509 435.219965,43.6 442.26,43.6 C445.780018,43.6 449.153317,43.9116636 452.38,44.535 C455.606683,45.1583364 458.173324,45.836663 460.08,46.57 L457.22,59.33 C455.313324,58.6699967 453.241678,58.0833359 451.005,57.57 C448.768322,57.0566641 446.256681,56.8 443.47,56.8 C438.336641,56.8 435.77,58.2299857 435.77,61.09 C435.77,61.7500033 435.879999,62.3366641 436.1,62.85 C436.320001,63.3633359 436.759997,63.8583309 437.42,64.335 C438.080003,64.8116691 438.978328,65.3249972 440.115,65.875 C441.251672,66.4250028 442.699991,67.0299967 444.46,67.69 C448.053351,69.0100066 451.023322,70.3116603 453.37,71.595 C455.716678,72.8783398 457.568327,74.2716592 458.925,75.775 C460.281673,77.2783409 461.234997,78.9466575 461.785,80.78 C462.335003,82.6133425 462.61,84.7399879 462.61,87.16 C462.61,92.8800286 460.465021,97.206652 456.175,100.14 C451.884979,103.073348 445.816706,104.54 437.97,104.54 C432.836641,104.54 428.565017,104.100004 425.155,103.22 C421.744983,102.339996 419.380007,101.60667 418.06,101.02 L420.81,87.71 C423.596681,88.8100055 426.456652,89.6716636 429.39,90.295 C432.323348,90.9183364 435.219986,91.23 438.08,91.23 Z M485.49,45.8 L507.16,45.8 L507.16,54.38 L485.49,54.38 L485.49,80.78 C485.49,83.6400143 485.709998,86.0049906 486.15,87.875 C486.590002,89.7450093 487.249996,91.2116613 488.13,92.275 C489.010004,93.3383386 490.109993,94.0899978 491.43,94.53 C492.750007,94.9700022 494.289991,95.19 496.05,95.19 C499.130015,95.19 501.604991,94.8416701 503.475,94.145 C505.345009,93.4483298 506.646663,92.9533348 507.38,92.66 L509.36,101.13 C508.333328,101.643336 506.536679,102.284996 503.97,103.055 C501.403321,103.825004 498.470017,104.21 495.17,104.21 C491.283314,104.21 488.075013,103.715005 485.545,102.725 C483.014987,101.734995 480.980008,100.25001 479.44,98.27 C477.899992,96.2899901 476.818336,93.8516811 476.195,90.955 C475.571664,88.0583189 475.26,84.7033524 475.26,80.89 L475.26,29.85 L485.49,28.09 L485.49,45.8 Z M569.09,74.4 C569.09,78.9466894 568.430007,83.053315 567.11,86.72 C565.789993,90.386685 563.938345,93.5399868 561.555,96.18 C559.171655,98.8200132 556.330017,100.854993 553.03,102.285 C549.729984,103.715007 546.136686,104.43 542.25,104.43 C538.363314,104.43 534.770016,103.715007 531.47,102.285 C528.169983,100.854993 525.328345,98.8200132 522.945,96.18 C520.561655,93.5399868 518.710007,90.386685 517.39,86.72 C516.069993,83.053315 515.41,78.9466894 515.41,74.4 C515.41,69.9266443 516.069993,65.8383518 517.39,62.135 C518.710007,58.4316482 520.561655,55.2600132 522.945,52.62 C525.328345,49.9799868 528.169983,47.9450071 531.47,46.515 C534.770016,45.0849928 538.363314,44.37 542.25,44.37 C546.136686,44.37 549.729984,45.0849928 553.03,46.515 C556.330017,47.9450071 559.171655,49.9799868 561.555,52.62 C563.938345,55.2600132 565.789993,58.4316482 567.11,62.135 C568.430007,65.8383518 569.09,69.9266443 569.09,74.4 Z M558.42,74.4 C558.42,67.9466344 556.971681,62.8316856 554.075,59.055 C551.178319,55.2783145 547.236692,53.39 542.25,53.39 C537.263308,53.39 533.321681,55.2783145 530.425,59.055 C527.528319,62.8316856 526.08,67.9466344 526.08,74.4 C526.08,80.8533656 527.528319,85.9683145 530.425,89.745 C533.321681,93.5216856 537.263308,95.41 542.25,95.41 C547.236692,95.41 551.178319,93.5216856 554.075,89.745 C556.971681,85.9683145 558.42,80.8533656 558.42,74.4 Z M618.26,104.54 C605.866605,104.54 596.425032,101.093368 589.935,94.2 C583.444968,87.3066322 580.2,77.5167301 580.2,64.83 C580.2,58.5233018 581.18999,52.8950248 583.17,47.945 C585.15001,42.9949753 587.863316,38.8150171 591.31,35.405 C594.756684,31.994983 598.86331,29.4100088 603.63,27.65 C608.39669,25.8899912 613.566639,25.01 619.14,25.01 C622.366683,25.01 625.299987,25.2483309 627.94,25.725 C630.580013,26.201669 632.88999,26.7516636 634.87,27.375 C636.85001,27.9983365 638.499993,28.6399967 639.82,29.3 C641.140007,29.9600033 642.09333,30.4733315 642.68,30.84 L637.73,44.7 C635.383322,43.4533271 632.651682,42.3900044 629.535,41.51 C626.418318,40.6299956 622.88002,40.19 618.92,40.19 C616.279987,40.19 613.695013,40.6299956 611.165,41.51 C608.634987,42.3900044 606.398343,43.8016569 604.455,45.745 C602.511657,47.6883431 600.953339,50.1999846 599.78,53.28 C598.606661,56.3600154 598.02,60.099978 598.02,64.5 C598.02,68.0200176 598.404996,71.3016515 599.175,74.345 C599.945004,77.3883486 601.191658,80.009989 602.915,82.21 C604.638342,84.410011 606.893319,86.1516603 609.68,87.435 C612.466681,88.7183397 615.83998,89.36 619.8,89.36 C622.293346,89.36 624.52999,89.2133348 626.51,88.92 C628.49001,88.6266652 630.249992,88.2783354 631.79,87.875 C633.330008,87.4716646 634.686661,87.0133359 635.86,86.5 C637.033339,85.9866641 638.096662,85.5100022 639.05,85.07 L643.78,98.82 C641.359988,100.286674 637.950022,101.606661 633.55,102.78 C629.149978,103.953339 624.053362,104.54 618.26,104.54 Z M676.89,91.56 C678.503341,91.56 680.043326,91.5233337 681.51,91.45 C682.976674,91.3766663 684.149996,91.2666674 685.03,91.12 L685.03,78.69 C684.369997,78.5433326 683.380007,78.3966674 682.06,78.25 C680.739993,78.1033326 679.530006,78.03 678.43,78.03 C676.889992,78.03 675.441673,78.1216658 674.085,78.305 C672.728327,78.4883342 671.536672,78.8366641 670.51,79.35 C669.483328,79.8633359 668.67667,80.5599956 668.09,81.44 C667.50333,82.3200044 667.21,83.4199934 667.21,84.74 C667.21,87.3066795 668.071658,89.0849951 669.795,90.075 C671.518342,91.065005 673.883318,91.56 676.89,91.56 Z M675.57,43.6 C680.410024,43.6 684.443317,44.1499945 687.67,45.25 C690.896683,46.3500055 693.481657,47.9266564 695.425,49.98 C697.368343,52.0333436 698.743329,54.526652 699.55,57.46 C700.356671,60.393348 700.76,63.6566487 700.76,67.25 L700.76,101.35 C698.413322,101.863336 695.150021,102.46833 690.97,103.165 C686.789979,103.86167 681.73003,104.21 675.79,104.21 C672.049981,104.21 668.658349,103.880003 665.615,103.22 C662.571651,102.559997 659.950011,101.478341 657.75,99.975 C655.549989,98.4716591 653.863339,96.5100121 652.69,94.09 C651.516661,91.6699879 650.93,88.7000176 650.93,85.18 C650.93,81.8066498 651.608327,78.9466784 652.965,76.6 C654.321673,74.2533216 656.136655,72.3833403 658.41,70.99 C660.683345,69.5966597 663.286652,68.5883364 666.22,67.965 C669.153348,67.3416635 672.196651,67.03 675.35,67.03 C677.476677,67.03 679.364992,67.1216658 681.015,67.305 C682.665008,67.4883342 684.003328,67.7266652 685.03,68.02 L685.03,66.48 C685.03,63.6933194 684.186675,61.4566751 682.5,59.77 C680.813325,58.0833249 677.880021,57.24 673.7,57.24 C670.913319,57.24 668.163347,57.4416647 665.45,57.845 C662.736653,58.2483354 660.39001,58.816663 658.41,59.55 L656.32,46.35 C657.273338,46.0566652 658.464993,45.7450016 659.895,45.415 C661.325007,45.0849984 662.883325,44.791668 664.57,44.535 C666.256675,44.2783321 668.034991,44.0583343 669.905,43.875 C671.775009,43.6916657 673.663324,43.6 675.57,43.6 Z M752.68,74.51 C752.68,69.4499747 751.543345,65.3983485 749.27,62.355 C746.996655,59.3116514 743.623356,57.79 739.15,57.79 C737.683326,57.79 736.326673,57.8449994 735.08,57.955 C733.833327,58.0650006 732.806671,58.1933326 732,58.34 L732,87.93 C733.026672,88.5900033 734.364992,89.1399978 736.015,89.58 C737.665008,90.0200022 739.333325,90.24 741.02,90.24 C748.793372,90.24 752.68,84.9967191 752.68,74.51 Z M769.4,74.07 C769.4,78.5433557 768.850006,82.613315 767.75,86.28 C766.649995,89.946685 765.036677,93.0999868 762.91,95.74 C760.783323,98.3800132 758.143349,100.433326 754.99,101.9 C751.836651,103.366674 748.206687,104.1 744.1,104.1 C741.826655,104.1 739.70001,103.880002 737.72,103.44 C735.73999,102.999998 733.833343,102.376671 732,101.57 L732,123.35 L715.61,123.35 L715.61,47.12 C717.076674,46.6799978 718.763324,46.2583354 720.67,45.855 C722.576676,45.4516646 724.57499,45.1033348 726.665,44.81 C728.75501,44.5166652 730.881656,44.2783343 733.045,44.095 C735.208344,43.9116657 737.27999,43.82 739.26,43.82 C744.026691,43.82 748.279981,44.5349928 752.02,45.965 C755.760019,47.3950071 758.913321,49.4116537 761.48,52.015 C764.04668,54.6183463 766.008327,57.7899813 767.365,61.53 C768.721673,65.2700187 769.4,69.4499769 769.4,74.07 Z" id="Waystocap" fill="#000000"></path>
    </g>
</svg>